# xmcd
#
# Track frame offsets:
#	150
#	15405
#	31806
#	49053
#	63240
#	78301
#	95987
#	112274
#	128173
#	145665
#	159539
#
# Disc length: 2299 seconds
#
# Revision: 0
# Processed by: cddbd v1.5.2PL0 Copyright (c) Steve Scherf et al.
# Submitted via: dBpowerAMP V4.0
#
DISCID=8d08f90b
DTITLE=toby keith - big dog daddy
DYEAR=2007
DGENRE=Country
TTITLE0=High Maintenance Woman
TTITLE1=Love Me If You Can
TTITLE2=White Rose
TTITLE3=Get My Drink On
TTITLE4=Wouldn't Wanna Be Ya
TTITLE5=Big Dog Daddy
TTITLE6=I Know She Hung the Moon
TTITLE7=Pump Jack
TTITLE8=Burnin' Moonlight
TTITLE9=Walk It Off
TTITLE10=Hit It
EXTD=
EXTT0=
EXTT1=
EXTT2=
EXTT3=
EXTT4=
EXTT5=
EXTT6=
EXTT7=
EXTT8=
EXTT9=
EXTT10=
PLAYORDER=
